<mxfile host="app.diagrams.net" modified="2023-09-28T06:19:41.959Z" agent="Mozilla/5.0 (Windows NT 10.0; Win64; x64) AppleWebKit/537.36 (KHTML, like Gecko) Chrome/117.0.0.0 Safari/537.36" etag="xZj_lie8fCBZV2RP7vKM" version="21.8.2" type="github">
  <diagram name="Page-1" id="74b105a0-9070-1c63-61bc-23e55f88626e">
    <mxGraphModel dx="1562" dy="781" grid="1" gridSize="10" guides="1" tooltips="1" connect="1" arrows="1" fold="1" page="1" pageScale="1.5" pageWidth="1169" pageHeight="826" background="none" math="0" shadow="0">
      <root>
        <mxCell id="0" style=";html=1;" />
        <mxCell id="1" style=";html=1;" parent="0" />
        <mxCell id="Eo_7HsmX6g1w4kb-M816-6" value="" style="edgeStyle=orthogonalEdgeStyle;rounded=0;orthogonalLoop=1;jettySize=auto;html=1;" edge="1" parent="1" source="Eo_7HsmX6g1w4kb-M816-4" target="Eo_7HsmX6g1w4kb-M816-5">
          <mxGeometry relative="1" as="geometry" />
        </mxCell>
        <mxCell id="Eo_7HsmX6g1w4kb-M816-4" value="Centralized Application&amp;nbsp;&lt;br&gt;for the Departments" style="whiteSpace=wrap;html=1;aspect=fixed;fillColor=#fa6800;strokeColor=#C73500;fontColor=#000000;" vertex="1" parent="1">
          <mxGeometry x="200" y="400" width="190" height="190" as="geometry" />
        </mxCell>
        <mxCell id="Eo_7HsmX6g1w4kb-M816-8" value="" style="edgeStyle=orthogonalEdgeStyle;rounded=0;orthogonalLoop=1;jettySize=auto;html=1;" edge="1" parent="1" source="Eo_7HsmX6g1w4kb-M816-5" target="Eo_7HsmX6g1w4kb-M816-7">
          <mxGeometry relative="1" as="geometry" />
        </mxCell>
        <mxCell id="Eo_7HsmX6g1w4kb-M816-5" value="Role based Authentication and Authorization (Department Users)" style="ellipse;whiteSpace=wrap;html=1;" vertex="1" parent="1">
          <mxGeometry x="235.6" y="650" width="158.81" height="145" as="geometry" />
        </mxCell>
        <mxCell id="Eo_7HsmX6g1w4kb-M816-10" value="" style="edgeStyle=orthogonalEdgeStyle;rounded=0;orthogonalLoop=1;jettySize=auto;html=1;" edge="1" parent="1" source="Eo_7HsmX6g1w4kb-M816-7" target="Eo_7HsmX6g1w4kb-M816-9">
          <mxGeometry relative="1" as="geometry" />
        </mxCell>
        <mxCell id="Eo_7HsmX6g1w4kb-M816-7" value="Functionalities&amp;nbsp;&lt;br&gt;&lt;ol&gt;&lt;li&gt;Can upload Parameters&amp;nbsp; (either Excel or CSV File)&lt;/li&gt;&lt;li&gt;Can Define Escalation Matrix&lt;/li&gt;&lt;li&gt;Can Define Alerts Mechanism&amp;nbsp;&lt;/li&gt;&lt;li&gt;Can define SOP for Report Creation&lt;/li&gt;&lt;li&gt;Can Manage Departmental Users&lt;/li&gt;&lt;li&gt;Can Upload Mechanism for Viewing Report Report&amp;nbsp; (Excel , PDF or any other Visualization)&lt;/li&gt;&lt;/ol&gt;" style="whiteSpace=wrap;html=1;align=left;" vertex="1" parent="1">
          <mxGeometry x="255.01" y="917.5" width="284.99" height="212.5" as="geometry" />
        </mxCell>
        <mxCell id="Eo_7HsmX6g1w4kb-M816-12" value="" style="edgeStyle=orthogonalEdgeStyle;rounded=0;orthogonalLoop=1;jettySize=auto;html=1;" edge="1" parent="1" source="Eo_7HsmX6g1w4kb-M816-9" target="Eo_7HsmX6g1w4kb-M816-11">
          <mxGeometry relative="1" as="geometry" />
        </mxCell>
        <mxCell id="Eo_7HsmX6g1w4kb-M816-9" value="Department&amp;nbsp; Uploads Data&amp;nbsp;&amp;nbsp;&lt;br&gt;to the Centralized Application" style="shape=trapezoid;perimeter=trapezoidPerimeter;whiteSpace=wrap;html=1;fixedSize=1;align=center;" vertex="1" parent="1">
          <mxGeometry x="702.5" y="993.75" width="207.51" height="66.25" as="geometry" />
        </mxCell>
        <mxCell id="Eo_7HsmX6g1w4kb-M816-14" value="" style="edgeStyle=orthogonalEdgeStyle;rounded=0;orthogonalLoop=1;jettySize=auto;html=1;" edge="1" parent="1" source="Eo_7HsmX6g1w4kb-M816-11" target="Eo_7HsmX6g1w4kb-M816-13">
          <mxGeometry relative="1" as="geometry" />
        </mxCell>
        <mxCell id="Eo_7HsmX6g1w4kb-M816-18" value="" style="edgeStyle=orthogonalEdgeStyle;rounded=0;orthogonalLoop=1;jettySize=auto;html=1;" edge="1" parent="1" source="Eo_7HsmX6g1w4kb-M816-11" target="Eo_7HsmX6g1w4kb-M816-17">
          <mxGeometry relative="1" as="geometry" />
        </mxCell>
        <mxCell id="Eo_7HsmX6g1w4kb-M816-11" value="The Data is accessible via the Analytics engine for processing the Information and creating the forms for uploading of Data into the syste." style="ellipse;whiteSpace=wrap;html=1;fillColor=#6d8764;strokeColor=#3A5431;fontColor=#ffffff;" vertex="1" parent="1">
          <mxGeometry x="766.26" y="750" width="170.63" height="170.63" as="geometry" />
        </mxCell>
        <mxCell id="Eo_7HsmX6g1w4kb-M816-20" value="" style="edgeStyle=orthogonalEdgeStyle;rounded=0;orthogonalLoop=1;jettySize=auto;html=1;" edge="1" parent="1" source="Eo_7HsmX6g1w4kb-M816-13" target="Eo_7HsmX6g1w4kb-M816-19">
          <mxGeometry relative="1" as="geometry" />
        </mxCell>
        <mxCell id="Eo_7HsmX6g1w4kb-M816-13" value="&lt;ol&gt;&lt;li&gt;Data is Collcted for the Departmetn&lt;/li&gt;&lt;li&gt;Data is Processed&amp;nbsp;&lt;/li&gt;&lt;li&gt;Data is Transformed&lt;/li&gt;&lt;li&gt;Report is Generated&lt;/li&gt;&lt;li&gt;Visualizations are Created as Required by the Department&amp;nbsp;&amp;nbsp;&lt;/li&gt;&lt;/ol&gt;" style="whiteSpace=wrap;html=1;align=left;" vertex="1" parent="1">
          <mxGeometry x="791.58" y="554.68" width="248.42" height="105.32" as="geometry" />
        </mxCell>
        <mxCell id="Eo_7HsmX6g1w4kb-M816-15" style="edgeStyle=orthogonalEdgeStyle;rounded=0;orthogonalLoop=1;jettySize=auto;html=1;entryX=0.636;entryY=-0.001;entryDx=0;entryDy=0;entryPerimeter=0;" edge="1" parent="1" source="Eo_7HsmX6g1w4kb-M816-13" target="Eo_7HsmX6g1w4kb-M816-7">
          <mxGeometry relative="1" as="geometry" />
        </mxCell>
        <mxCell id="Eo_7HsmX6g1w4kb-M816-16" value="Report is Generated as per the&amp;nbsp; Parameters &lt;br&gt;uploaded by the Department&amp;nbsp;" style="edgeLabel;html=1;align=center;verticalAlign=middle;resizable=0;points=[];" vertex="1" connectable="0" parent="Eo_7HsmX6g1w4kb-M816-15">
          <mxGeometry x="0.58" y="3" relative="1" as="geometry">
            <mxPoint x="131" y="-170" as="offset" />
          </mxGeometry>
        </mxCell>
        <mxCell id="Eo_7HsmX6g1w4kb-M816-17" value="Analytica Engine" style="shape=hexagon;perimeter=hexagonPerimeter2;whiteSpace=wrap;html=1;fixedSize=1;fillColor=#6d8764;strokeColor=#3A5431;fontColor=#ffffff;" vertex="1" parent="1">
          <mxGeometry x="1042.205" y="795.315" width="120" height="80" as="geometry" />
        </mxCell>
        <mxCell id="Eo_7HsmX6g1w4kb-M816-19" value="&lt;ol&gt;&lt;li&gt;Department Can View the Report&amp;nbsp;&lt;/li&gt;&lt;li&gt;The Report is Available&amp;nbsp; for Viewing to higher Authorities&lt;br&gt;&lt;/li&gt;&lt;li&gt;The Generate Report can be shared automatically on Official Mail&lt;/li&gt;&lt;/ol&gt;" style="whiteSpace=wrap;html=1;align=left;fillColor=#1ba1e2;fontColor=#ffffff;strokeColor=#006EAF;" vertex="1" parent="1">
          <mxGeometry x="1120" y="554.68" width="248.42" height="105.32" as="geometry" />
        </mxCell>
      </root>
    </mxGraphModel>
  </diagram>
</mxfile>
